<?xml version="1.0" encoding="UTF-8" standalone="no"?>
<svg width="41px" height="45px" viewBox="0 0 41 45" version="1.1" xmlns="http://www.w3.org/2000/svg" xmlns:xlink="http://www.w3.org/1999/xlink">
    <!-- Generator: Sketch 40.1 (33804) - http://www.bohemiancoding.com/sketch -->
    <title>logo</title>
    <desc>Created with Sketch.</desc>
    <defs></defs>
    <g id="Page-1" stroke="none" stroke-width="1" fill="none" fill-rule="evenodd">
        <g id="Desktop-HD" transform="translate(-858.000000, -235.000000)" fill="#FFFFFF">
            <path d="M893.54136,271.868458 C893.201214,271.868458 892.87691,271.671829 892.730029,271.341157 C892.432972,270.672085 892.246677,270.015936 892.126283,269.214088 C892.124635,269.20446 892.121467,269.189763 892.118425,269.175067 C892.109808,269.131611 892.101317,269.088028 892.0946,269.043305 C891.940242,268.011634 892.15467,267.297459 892.450967,266.470906 L892.46871,266.425423 C892.576558,266.169881 892.624589,265.96641 892.624589,265.765346 C892.624589,264.952857 891.963433,264.291893 891.150708,264.291893 C890.338743,264.291893 889.678095,264.952857 889.678095,265.765346 C889.678095,266.255146 889.28092,266.652206 888.790978,266.652206 C888.30091,266.652206 887.903862,266.255146 887.903862,265.765346 C887.903862,263.974778 889.36038,262.518175 891.150708,262.518175 C892.941796,262.518175 894.398822,263.974778 894.398822,265.765346 C894.398822,266.201174 894.308082,266.622939 894.113424,267.090947 C893.865791,267.783838 893.759591,268.180771 893.84919,268.780034 C893.851344,268.794604 893.854893,268.809807 893.857807,268.825137 C893.866045,268.865173 893.873649,268.905081 893.879985,268.945497 C893.977948,269.597212 894.118746,270.09702 894.351805,270.621534 C894.550519,271.069145 894.34851,271.593278 893.900769,271.791935 C893.783797,271.843879 893.661501,271.868458 893.54136,271.868458 Z M869.599987,279.139513 C868.382863,279.139513 867.24596,278.660736 866.398383,277.79136 C866.217538,277.60892 866.043283,277.396708 865.887911,277.168151 L865.840387,277.098343 L865.808578,277.034742 C864.72148,274.9956 863.304501,273.254442 861.479829,271.715994 L861.475901,271.714221 L861.385288,271.63681 C861.380092,271.632503 861.374769,271.628195 861.3697,271.623888 L861.175295,271.462226 L861.16465,271.442208 C859.574176,269.983198 858.666783,267.928345 858.666783,265.765549 C858.666783,261.517493 862.123876,258.061403 866.373291,258.061403 C867.161937,258.061403 867.939051,258.179862 868.683342,258.413613 C869.350961,258.623165 869.722282,259.334426 869.512543,260.001978 C869.302676,260.669656 868.591335,261.040616 867.92359,260.830938 C867.425538,260.674597 866.903913,260.595286 866.373291,260.595286 C863.521465,260.595286 861.201402,262.914677 861.201402,265.765549 C861.201402,267.220505 861.813765,268.602865 862.886796,269.582845 L863.105027,269.689268 L863.184234,269.838767 C865.185695,271.541536 866.811019,273.543304 868.018638,275.793013 C868.077188,275.874097 868.140047,275.948593 868.2062,276.015361 C868.57993,276.398611 869.072279,276.605629 869.599987,276.605629 C870.673271,276.605629 871.546447,275.733213 871.546447,274.660747 L871.546447,243.609272 L898.857849,235.139513 L898.858483,274.660494 C898.858483,277.130143 896.848277,279.139259 894.377277,279.139259 C893.160154,279.139259 892.023377,278.660482 891.175801,277.791107 C890.994829,277.60854 890.820574,277.396454 890.665455,277.168405 L890.610834,277.088334 L890.580165,277.023847 C889.492687,274.987238 888.075836,273.24798 886.251924,271.71156 L886.248376,271.709786 L886.167901,271.641118 C886.161058,271.635417 886.154088,271.629589 886.146991,271.623761 L885.952079,271.461719 L885.941433,271.441321 C884.351214,269.982438 883.444074,267.927839 883.444074,265.765296 C883.444074,261.51724 886.901293,258.06115 891.150708,258.06115 C891.939101,258.06115 892.716215,258.179609 893.460506,258.413359 C894.128251,258.623038 894.499573,259.334173 894.289706,260.001724 C894.079967,260.669403 893.368626,261.040236 892.700881,260.830684 C892.202828,260.674344 891.681204,260.595033 891.150708,260.595033 C888.298882,260.595033 885.978692,262.914423 885.978692,265.765296 C885.978692,267.222279 886.592703,268.606286 887.668522,269.586772 L887.886119,269.695476 L887.962031,269.83902 C889.963112,271.54141 891.588437,273.543178 892.795929,275.793013 C892.854479,275.873844 892.917464,275.94834 892.983617,276.015108 C893.357347,276.398358 893.849697,276.605376 894.377277,276.605376 C895.434467,276.605376 896.297378,275.759186 896.323231,274.709144 L896.323231,238.578626 L874.081066,245.476237 L874.081066,274.660747 C874.081066,277.130397 872.07086,279.139513 869.599987,279.139513 Z M868.763981,271.868699 C868.423835,271.868699 868.099404,271.672069 867.95265,271.341271 C867.655719,270.672199 867.469425,270.016177 867.348903,269.214456 C867.347003,269.202673 867.343834,269.188103 867.340919,269.173407 C867.332302,269.131218 867.324191,269.088775 867.317474,269.045446 C867.162862,268.011621 867.377418,267.297446 867.673715,266.47102 L867.691457,266.425664 C867.799305,266.170122 867.847336,265.966651 867.847336,265.765587 C867.847336,264.953097 867.186054,264.292134 866.373329,264.292134 C865.561364,264.292134 864.900842,264.953097 864.900842,265.765587 C864.900842,266.255387 864.503667,266.652446 864.013726,266.652446 C863.523657,266.652446 863.126609,266.255387 863.126609,265.765587 C863.126609,263.975018 864.583128,262.518415 866.373329,262.518415 C868.164417,262.518415 869.621569,263.975018 869.621569,265.765587 C869.621569,266.201415 869.53083,266.623307 869.336171,267.091315 C869.088412,267.783952 868.982212,268.181011 869.07181,268.780275 C869.073711,268.793071 869.077133,268.808274 869.080175,268.823478 C869.088539,268.86478 869.096523,268.905956 869.10286,268.947511 C869.200569,269.597326 869.341494,270.097261 869.574425,270.621901 C869.773139,271.069639 869.571004,271.593646 869.123263,271.792176 C869.006291,271.84412 868.884122,271.868699 868.763981,271.868699 Z" id="logo"></path>
        </g>
    </g>
</svg>